REM DIRINDEX 1\6,1\2\7,1\2\8,1\2\9,1\3\10,1\3\11,1\4\12,1\4\13,1\4\14,1\5\15,1\5\16,1\5\17
REM DIRNAME folder01,folder02,folder03,folder04,folder05,folder06,folder07,folder08,folder09,folder10,folder11,folder12,folder13,folder14,folder15,folder16,folder17
TITLE ""
FILE "P2Q_t_0704-0721.mp3" MP3
  TRACK 01 AUDIO
    TITLE "10:cjc040_3061"
    INDEX 01 00:00:00
  TRACK 02 AUDIO
    TITLE "0:"
    INDEX 01 00:01:17
  TRACK 03 AUDIO
    TITLE "11:cjc040_3062"
    INDEX 01 00:02:06
  TRACK 04 AUDIO
    TITLE "0:"
    INDEX 01 00:03:23
  TRACK 05 AUDIO
    TITLE "10:cjc040_3063"
    INDEX 01 00:04:01
  TRACK 06 AUDIO
    TITLE "0:"
    INDEX 01 00:05:26
  TRACK 07 AUDIO
    TITLE "11:cjc040_3064"
    INDEX 01 00:06:04
  TRACK 08 AUDIO
    TITLE "0:"
    INDEX 01 00:08:24
  TRACK 09 AUDIO
    TITLE "10:cjc040_3065"
    INDEX 01 00:09:00
  TRACK 10 AUDIO
    TITLE "0:"
    INDEX 01 00:10:21
  TRACK 11 AUDIO
    TITLE "11:cjc040_3066"
    INDEX 01 00:10:70
  TRACK 12 AUDIO
    TITLE "0:"
    INDEX 01 00:13:32
  TRACK 13 AUDIO
    TITLE "10:cjc040_3067"
    INDEX 01 00:14:09
  TRACK 14 AUDIO
    TITLE "0:"
    INDEX 01 00:15:34
  TRACK 15 AUDIO
    TITLE "11:cjc040_3068"
    INDEX 01 00:16:14
  TRACK 16 AUDIO
    TITLE "0:"
    INDEX 01 00:17:53
  TRACK 17 AUDIO
    TITLE "10:cjc040_3069"
    INDEX 01 00:18:35
  TRACK 18 AUDIO
    TITLE "0:"
    INDEX 01 00:19:50
  TRACK 19 AUDIO
    TITLE "11:cjc040_3070"
    INDEX 01 00:20:34
  TRACK 20 AUDIO
    TITLE "0:"
    INDEX 01 00:22:50
  TRACK 21 AUDIO
    TITLE "10:cjc040_3071"
    INDEX 01 00:23:26
  TRACK 22 AUDIO
    TITLE "0:"
    INDEX 01 00:24:49
  TRACK 23 AUDIO
    TITLE "11:cjc040_3072"
    INDEX 01 00:25:33
  TRACK 24 AUDIO
    TITLE "0:"
    INDEX 01 00:27:65
  TRACK 25 AUDIO
    TITLE "10:cjc040_3073"
    INDEX 01 00:28:41
  TRACK 26 AUDIO
    TITLE "0:"
    INDEX 01 00:29:70
  TRACK 27 AUDIO
    TITLE "11:cjc040_3074"
    INDEX 01 00:30:54
  TRACK 28 AUDIO
    TITLE "0:"
    INDEX 01 00:33:38
  TRACK 29 AUDIO
    TITLE "10:cjc040_3075"
    INDEX 01 00:34:22
  TRACK 30 AUDIO
    TITLE "0:"
    INDEX 01 00:35:49
  TRACK 31 AUDIO
    TITLE "11:cjc040_3076"
    INDEX 01 00:36:29
  TRACK 32 AUDIO
    TITLE "0:"
    INDEX 01 00:38:55
  TRACK 33 AUDIO
    TITLE "10:cjc040_3077"
    INDEX 01 00:39:35
  TRACK 34 AUDIO
    TITLE "0:"
    INDEX 01 00:40:62
  TRACK 35 AUDIO
    TITLE "11:cjc040_3078"
    INDEX 01 00:41:40
  TRACK 36 AUDIO
    TITLE "0:"
    INDEX 01 00:44:56
  TRACK 37 AUDIO
    TITLE "10:cjc040_3079"
    INDEX 01 00:45:33
  TRACK 38 AUDIO
    TITLE "0:"
    INDEX 01 00:46:60
  TRACK 39 AUDIO
    TITLE "11:cjc040_3080"
    INDEX 01 00:47:44
  TRACK 40 AUDIO
    TITLE "0:"
    INDEX 01 00:49:69
  TRACK 41 AUDIO
    TITLE "10:cjc040_3081"
    INDEX 01 00:50:46
  TRACK 42 AUDIO
    TITLE "0:"
    INDEX 01 00:51:58
  TRACK 43 AUDIO
    TITLE "11:cjc040_3082"
    INDEX 01 00:52:41
  TRACK 44 AUDIO
    TITLE "0:"
    INDEX 01 00:54:44
  TRACK 45 AUDIO
    TITLE "10:cjc040_3083"
    INDEX 01 00:55:20
  TRACK 46 AUDIO
    TITLE "0:"
    INDEX 01 00:56:47
  TRACK 47 AUDIO
    TITLE "11:cjc040_3084"
    INDEX 01 00:57:29
  TRACK 48 AUDIO
    TITLE "0:"
    INDEX 01 00:58:40
  TRACK 49 AUDIO
    TITLE "10:cjc040_3085"
    INDEX 01 00:59:30
  TRACK 50 AUDIO
    TITLE "0:"
    INDEX 01 01:01:01
  TRACK 51 AUDIO
    TITLE "11:cjc040_3086"
    INDEX 01 01:01:58
  TRACK 52 AUDIO
    TITLE "0:"
    INDEX 01 01:04:35
  TRACK 53 AUDIO
    TITLE "10:cjc040_3087"
    INDEX 01 01:05:17
  TRACK 54 AUDIO
    TITLE "0:"
    INDEX 01 01:06:34
  TRACK 55 AUDIO
    TITLE "11:cjc040_3088"
    INDEX 01 01:07:14
  TRACK 56 AUDIO
    TITLE "0:"
    INDEX 01 01:08:31
  TRACK 57 AUDIO
    TITLE "10:cjc040_3089"
    INDEX 01 01:09:12
  TRACK 58 AUDIO
    TITLE "0:"
    INDEX 01 01:10:33
  TRACK 59 AUDIO
    TITLE "11:cjc040_3090"
    INDEX 01 01:11:11
  TRACK 60 AUDIO
    TITLE "0:"
    INDEX 01 01:16:07
  TRACK 61 AUDIO
    TITLE "10:cjc040_3091"
    INDEX 01 01:16:58
  TRACK 62 AUDIO
    TITLE "0:"
    INDEX 01 01:18:11
  TRACK 63 AUDIO
    TITLE "11:cjc040_3092"
    INDEX 01 01:18:62
  TRACK 64 AUDIO
    TITLE "0:"
    INDEX 01 01:20:32
  TRACK 65 AUDIO
    TITLE "10:cjc040_3093"
    INDEX 01 01:21:16
  TRACK 66 AUDIO
    TITLE "0:"
    INDEX 01 01:22:41
  TRACK 67 AUDIO
    TITLE "11:cjc040_3094"
    INDEX 01 01:23:15
  TRACK 68 AUDIO
    TITLE "0:"
    INDEX 01 01:25:23
  TRACK 69 AUDIO
    TITLE "10:cjc040_3095"
    INDEX 01 01:26:01
  TRACK 70 AUDIO
    TITLE "0:"
    INDEX 01 01:27:40
  TRACK 71 AUDIO
    TITLE "11:cjc040_3096"
    INDEX 01 01:28:24
  TRACK 72 AUDIO
    TITLE "0:"
    INDEX 01 01:29:31
